<svg width="104" height="18" viewBox="0 0 104 18" fill="none" xmlns="http://www.w3.org/2000/svg">
<path d="M6.95282 2.89081H8.50569V0.186223C8.23779 0.149368 7.31641 0.0664444 6.24337 0.0664444C4.00443 0.0664444 2.4707 1.47473 2.4707 4.06308V6.44518H0V9.4687H2.4707V17.0764H5.49989V9.46941H7.87065L8.247 6.44589H5.49918V4.36288C5.49989 3.48899 5.73519 2.89081 6.95282 2.89081Z" fill="white"/>
<path d="M40.2676 3.37419C39.6443 3.64762 38.9801 3.82886 38.2876 3.91686C39 3.49152 39.5437 2.82314 39.7994 2.01752C39.1352 2.41352 38.4018 2.69324 37.6203 2.84933C36.9896 2.17781 36.0908 1.76191 35.1102 1.76191C33.2077 1.76191 31.6761 3.3061 31.6761 5.19914C31.6761 5.47152 31.6992 5.73343 31.7557 5.98276C28.8989 5.84343 26.371 4.47419 24.6728 2.38838C24.3763 2.90276 24.2024 3.49152 24.2024 4.12533C24.2024 5.31543 24.8153 6.37038 25.7288 6.98114C25.1767 6.97067 24.6351 6.81038 24.1762 6.55791C24.1762 6.56838 24.1762 6.582 24.1762 6.59562C24.1762 8.26552 25.3674 9.65257 26.9294 9.9721C26.6496 10.0486 26.3448 10.0852 26.0284 10.0852C25.8084 10.0852 25.5863 10.0727 25.3778 10.0266C25.8231 11.3874 27.0865 12.3879 28.5888 12.4204C27.4196 13.335 25.9352 13.886 24.3281 13.886C24.0463 13.886 23.776 13.8734 23.5057 13.8389C25.0279 14.8205 26.8319 15.381 28.7774 15.381C35.1008 15.381 38.5579 10.1429 38.5579 5.60248C38.5579 5.45057 38.5527 5.30391 38.5454 5.15829C39.2274 4.67429 39.8004 4.06981 40.2676 3.37419Z" fill="white"/>
<path fill-rule="evenodd" clip-rule="evenodd" d="M60.6247 0H67.0533C70.0115 0 72.4104 2.39893 72.4104 5.35714V11.7857C72.4104 14.7439 70.0115 17.1429 67.0533 17.1429H60.6247C57.6665 17.1429 55.2676 14.7439 55.2676 11.7857V5.35714C55.2676 2.39893 57.6665 0 60.6247 0ZM67.0531 15.5357C69.1209 15.5357 70.8031 13.8536 70.8031 11.7857V5.35718C70.8031 3.28932 69.1209 1.60718 67.0531 1.60718H60.6245C58.5567 1.60718 56.8745 3.28932 56.8745 5.35718V11.7857C56.8745 13.8536 58.5567 15.5357 60.6245 15.5357H67.0531Z" fill="white"/>
<path fill-rule="evenodd" clip-rule="evenodd" d="M59.5527 8.5716C59.5527 6.20482 61.4717 4.28589 63.8384 4.28589C66.2052 4.28589 68.1242 6.20482 68.1242 8.5716C68.1242 10.9384 66.2052 12.8573 63.8384 12.8573C61.4717 12.8573 59.5527 10.9384 59.5527 8.5716ZM61.1597 8.57164C61.1597 10.0481 62.3618 11.2502 63.8382 11.2502C65.3147 11.2502 66.5168 10.0481 66.5168 8.57164C66.5168 7.09414 65.3147 5.89307 63.8382 5.89307C62.3618 5.89307 61.1597 7.09414 61.1597 8.57164Z" fill="white"/>
<circle cx="68.4461" cy="3.96414" r="0.571071" fill="white"/>
<g clip-path="url(#clip0_6366_591)">
<path d="M91.0173 16.5714H87.7803V5.93559H91.1098V16.5714H91.0173ZM89.3526 4.45581C88.3353 4.45581 87.4104 3.62345 87.4104 2.51363C87.4104 1.49628 88.2428 0.571426 89.3526 0.571426C90.3699 0.571426 91.2948 1.4038 91.2948 2.51363C91.2948 3.62345 90.4624 4.45581 89.3526 4.45581ZM103.41 16.5714H100.081V11.3922C100.081 10.1899 100.081 8.61767 98.4162 8.61767C96.659 8.61767 96.474 9.91247 96.474 11.2997V16.5714H93.1445V5.93559H96.289V7.41536C96.7514 6.58299 97.7688 5.75061 99.4335 5.75061C102.763 5.75061 103.41 7.97027 103.41 10.8373V16.5714Z" fill="white"/>
</g>
<defs>
<clipPath id="clip0_6366_591">
<rect width="16" height="16" fill="white" transform="translate(87.4104 0.571426)"/>
</clipPath>
</defs>
</svg>
